<svg xmlns="http://www.w3.org/2000/svg" version="1.1" xmlns:xlink="http://www.w3.org/1999/xlink" xmlns:svgjs="http://svgjs.com/svgjs" width="1440" height="560" preserveAspectRatio="none" viewBox="0 0 1440 560"><g mask="url(&quot;#SvgjsMask1039&quot;)" fill="none"><rect width="1440" height="560" x="0" y="0" fill="rgba(38, 40, 41, 1)"></rect><path d="M55.89 406.46L106.98 435.96L106.98 494.96L55.89 524.46L4.79 494.96L4.79 435.96zM4.79 494.96L55.89 524.46L55.89 583.46L4.79 612.96L-46.31 583.46L-46.31 524.46zM158.08 229.46L209.18 258.96L209.18 317.96L158.08 347.46L106.98 317.96L106.98 258.96zM209.18 494.96L260.27 524.46L260.27 583.46L209.18 612.96L158.08 583.46L158.08 524.46zM566.86 229.46L617.95 258.96L617.95 317.96L566.86 347.46L515.76 317.96L515.76 258.96zM515.76 317.96L566.86 347.46L566.86 406.46L515.76 435.96L464.66 406.46L464.66 347.46zM617.95 -36.04L669.05 -6.54L669.05 52.46L617.95 81.96L566.86 52.46L566.86 -6.54zM771.24 406.46L822.34 435.96L822.34 494.96L771.24 524.46L720.15 494.96L720.15 435.96zM873.44 229.46L924.54 258.96L924.54 317.96L873.44 347.46L822.34 317.96L822.34 258.96zM975.63 229.46L1026.73 258.96L1026.73 317.96L975.63 347.46L924.54 317.96L924.54 258.96zM1026.73 317.96L1077.83 347.46L1077.83 406.46L1026.73 435.96L975.63 406.46L975.63 347.46zM1180.02 229.46L1231.12 258.96L1231.12 317.96L1180.02 347.46L1128.92 317.96L1128.92 258.96zM1384.41 406.46L1435.5 435.96L1435.5 494.96L1384.41 524.46L1333.31 494.96L1333.31 435.96zM1435.5 317.96L1486.6 347.46L1486.6 406.46L1435.5 435.96L1384.41 406.46L1384.41 347.46zM1435.5 494.96L1486.6 524.46L1486.6 583.46L1435.5 612.96L1384.41 583.46L1384.41 524.46z" stroke="rgba(0, 81, 49, 1)" stroke-width="2"></path><path d="M49.99 406.46 a5.9 5.9 0 1 0 11.8 0 a5.9 5.9 0 1 0 -11.8 0zM101.08 435.96 a5.9 5.9 0 1 0 11.8 0 a5.9 5.9 0 1 0 -11.8 0zM101.08 494.96 a5.9 5.9 0 1 0 11.8 0 a5.9 5.9 0 1 0 -11.8 0zM49.99 524.46 a5.9 5.9 0 1 0 11.8 0 a5.9 5.9 0 1 0 -11.8 0zM-1.11 494.96 a5.9 5.9 0 1 0 11.8 0 a5.9 5.9 0 1 0 -11.8 0zM-1.11 435.96 a5.9 5.9 0 1 0 11.8 0 a5.9 5.9 0 1 0 -11.8 0zM49.99 583.46 a5.9 5.9 0 1 0 11.8 0 a5.9 5.9 0 1 0 -11.8 0zM-1.11 612.96 a5.9 5.9 0 1 0 11.8 0 a5.9 5.9 0 1 0 -11.8 0zM-52.21 583.46 a5.9 5.9 0 1 0 11.8 0 a5.9 5.9 0 1 0 -11.8 0zM-52.21 524.46 a5.9 5.9 0 1 0 11.8 0 a5.9 5.9 0 1 0 -11.8 0zM152.18 229.46 a5.9 5.9 0 1 0 11.8 0 a5.9 5.9 0 1 0 -11.8 0zM203.28 258.96 a5.9 5.9 0 1 0 11.8 0 a5.9 5.9 0 1 0 -11.8 0zM203.28 317.96 a5.9 5.9 0 1 0 11.8 0 a5.9 5.9 0 1 0 -11.8 0zM152.18 347.46 a5.9 5.9 0 1 0 11.8 0 a5.9 5.9 0 1 0 -11.8 0zM101.08 317.96 a5.9 5.9 0 1 0 11.8 0 a5.9 5.9 0 1 0 -11.8 0zM101.08 258.96 a5.9 5.9 0 1 0 11.8 0 a5.9 5.9 0 1 0 -11.8 0zM203.28 494.96 a5.9 5.9 0 1 0 11.8 0 a5.9 5.9 0 1 0 -11.8 0zM254.37 524.46 a5.9 5.9 0 1 0 11.8 0 a5.9 5.9 0 1 0 -11.8 0zM254.37 583.46 a5.9 5.9 0 1 0 11.8 0 a5.9 5.9 0 1 0 -11.8 0zM203.28 612.96 a5.9 5.9 0 1 0 11.8 0 a5.9 5.9 0 1 0 -11.8 0zM152.18 583.46 a5.9 5.9 0 1 0 11.8 0 a5.9 5.9 0 1 0 -11.8 0zM152.18 524.46 a5.9 5.9 0 1 0 11.8 0 a5.9 5.9 0 1 0 -11.8 0zM560.96 229.46 a5.9 5.9 0 1 0 11.8 0 a5.9 5.9 0 1 0 -11.8 0zM612.05 258.96 a5.9 5.9 0 1 0 11.8 0 a5.9 5.9 0 1 0 -11.8 0zM612.05 317.96 a5.9 5.9 0 1 0 11.8 0 a5.9 5.9 0 1 0 -11.8 0zM560.96 347.46 a5.9 5.9 0 1 0 11.8 0 a5.9 5.9 0 1 0 -11.8 0zM509.86 317.96 a5.9 5.9 0 1 0 11.8 0 a5.9 5.9 0 1 0 -11.8 0zM509.86 258.96 a5.9 5.9 0 1 0 11.8 0 a5.9 5.9 0 1 0 -11.8 0zM560.96 406.46 a5.9 5.9 0 1 0 11.8 0 a5.9 5.9 0 1 0 -11.8 0zM509.86 435.96 a5.9 5.9 0 1 0 11.8 0 a5.9 5.9 0 1 0 -11.8 0zM458.76 406.46 a5.9 5.9 0 1 0 11.8 0 a5.9 5.9 0 1 0 -11.8 0zM458.76 347.46 a5.9 5.9 0 1 0 11.8 0 a5.9 5.9 0 1 0 -11.8 0zM612.05 -36.04 a5.9 5.9 0 1 0 11.8 0 a5.9 5.9 0 1 0 -11.8 0zM663.15 -6.54 a5.9 5.9 0 1 0 11.8 0 a5.9 5.9 0 1 0 -11.8 0zM663.15 52.46 a5.9 5.9 0 1 0 11.8 0 a5.9 5.9 0 1 0 -11.8 0zM612.05 81.96 a5.9 5.9 0 1 0 11.8 0 a5.9 5.9 0 1 0 -11.8 0zM560.96 52.46 a5.9 5.9 0 1 0 11.8 0 a5.9 5.9 0 1 0 -11.8 0zM560.96 -6.54 a5.9 5.9 0 1 0 11.8 0 a5.9 5.9 0 1 0 -11.8 0zM765.34 406.46 a5.9 5.9 0 1 0 11.8 0 a5.9 5.9 0 1 0 -11.8 0zM816.44 435.96 a5.9 5.9 0 1 0 11.8 0 a5.9 5.9 0 1 0 -11.8 0zM816.44 494.96 a5.9 5.9 0 1 0 11.8 0 a5.9 5.9 0 1 0 -11.8 0zM765.34 524.46 a5.9 5.9 0 1 0 11.8 0 a5.9 5.9 0 1 0 -11.8 0zM714.25 494.96 a5.9 5.9 0 1 0 11.8 0 a5.9 5.9 0 1 0 -11.8 0zM714.25 435.96 a5.9 5.9 0 1 0 11.8 0 a5.9 5.9 0 1 0 -11.8 0zM867.54 229.46 a5.9 5.9 0 1 0 11.8 0 a5.9 5.9 0 1 0 -11.8 0zM918.64 258.96 a5.9 5.9 0 1 0 11.8 0 a5.9 5.9 0 1 0 -11.8 0zM918.64 317.96 a5.9 5.9 0 1 0 11.8 0 a5.9 5.9 0 1 0 -11.8 0zM867.54 347.46 a5.9 5.9 0 1 0 11.8 0 a5.9 5.9 0 1 0 -11.8 0zM816.44 317.96 a5.9 5.9 0 1 0 11.8 0 a5.9 5.9 0 1 0 -11.8 0zM816.44 258.96 a5.9 5.9 0 1 0 11.8 0 a5.9 5.9 0 1 0 -11.8 0zM969.73 229.46 a5.9 5.9 0 1 0 11.8 0 a5.9 5.9 0 1 0 -11.8 0zM1020.83 258.96 a5.9 5.9 0 1 0 11.8 0 a5.9 5.9 0 1 0 -11.8 0zM1020.83 317.96 a5.9 5.9 0 1 0 11.8 0 a5.9 5.9 0 1 0 -11.8 0zM969.73 347.46 a5.9 5.9 0 1 0 11.8 0 a5.9 5.9 0 1 0 -11.8 0zM1071.93 347.46 a5.9 5.9 0 1 0 11.8 0 a5.9 5.9 0 1 0 -11.8 0zM1071.93 406.46 a5.9 5.9 0 1 0 11.8 0 a5.9 5.9 0 1 0 -11.8 0zM1020.83 435.96 a5.9 5.9 0 1 0 11.8 0 a5.9 5.9 0 1 0 -11.8 0zM969.73 406.46 a5.9 5.9 0 1 0 11.8 0 a5.9 5.9 0 1 0 -11.8 0zM1174.12 229.46 a5.9 5.9 0 1 0 11.8 0 a5.9 5.9 0 1 0 -11.8 0zM1225.22 258.96 a5.9 5.9 0 1 0 11.8 0 a5.9 5.9 0 1 0 -11.8 0zM1225.22 317.96 a5.9 5.9 0 1 0 11.8 0 a5.9 5.9 0 1 0 -11.8 0zM1174.12 347.46 a5.9 5.9 0 1 0 11.8 0 a5.9 5.9 0 1 0 -11.8 0zM1123.02 317.96 a5.9 5.9 0 1 0 11.8 0 a5.9 5.9 0 1 0 -11.8 0zM1123.02 258.96 a5.9 5.9 0 1 0 11.8 0 a5.9 5.9 0 1 0 -11.8 0zM1378.51 406.46 a5.9 5.9 0 1 0 11.8 0 a5.9 5.9 0 1 0 -11.8 0zM1429.6 435.96 a5.9 5.9 0 1 0 11.8 0 a5.9 5.9 0 1 0 -11.8 0zM1429.6 494.96 a5.9 5.9 0 1 0 11.8 0 a5.9 5.9 0 1 0 -11.8 0zM1378.51 524.46 a5.9 5.9 0 1 0 11.8 0 a5.9 5.9 0 1 0 -11.8 0zM1327.41 494.96 a5.9 5.9 0 1 0 11.8 0 a5.9 5.9 0 1 0 -11.8 0zM1327.41 435.96 a5.9 5.9 0 1 0 11.8 0 a5.9 5.9 0 1 0 -11.8 0zM1429.6 317.96 a5.9 5.9 0 1 0 11.8 0 a5.9 5.9 0 1 0 -11.8 0zM1480.7 347.46 a5.9 5.9 0 1 0 11.8 0 a5.9 5.9 0 1 0 -11.8 0zM1480.7 406.46 a5.9 5.9 0 1 0 11.8 0 a5.9 5.9 0 1 0 -11.8 0zM1378.51 347.46 a5.9 5.9 0 1 0 11.8 0 a5.9 5.9 0 1 0 -11.8 0zM1480.7 524.46 a5.9 5.9 0 1 0 11.8 0 a5.9 5.9 0 1 0 -11.8 0zM1480.7 583.46 a5.9 5.9 0 1 0 11.8 0 a5.9 5.9 0 1 0 -11.8 0zM1429.6 612.96 a5.9 5.9 0 1 0 11.8 0 a5.9 5.9 0 1 0 -11.8 0zM1378.51 583.46 a5.9 5.9 0 1 0 11.8 0 a5.9 5.9 0 1 0 -11.8 0z" fill="rgba(0, 81, 49, 1)"></path><path d="M21.54 433.31L64.84 458.31L64.84 508.31L21.54 533.31L-21.76 508.31L-21.76 458.31zM64.84 508.31L108.15 533.31L108.15 583.31L64.84 608.31L21.54 583.31L21.54 533.31zM194.75 433.31L238.05 458.31L238.05 508.31L194.75 533.31L151.45 508.31L151.45 458.31zM238.05 508.31L281.36 533.31L281.36 583.31L238.05 608.31L194.75 583.31L194.75 533.31zM367.96 -16.69L411.26 8.31L411.26 58.31L367.96 83.31L324.66 58.31L324.66 8.31zM454.57 433.31L497.87 458.31L497.87 508.31L454.57 533.31L411.26 508.31L411.26 458.31zM627.77 283.31L671.08 308.31L671.08 358.31L627.77 383.31L584.47 358.31L584.47 308.31zM671.08 358.31L714.38 383.31L714.38 433.31L671.08 458.31L627.77 433.31L627.77 383.31zM627.77 433.31L671.08 458.31L671.08 508.31L627.77 533.31L584.47 508.31L584.47 458.31zM714.38 -16.69L757.68 8.31L757.68 58.31L714.38 83.31L671.08 58.31L671.08 8.31zM714.38 433.31L757.68 458.31L757.68 508.31L714.38 533.31L671.08 508.31L671.08 458.31zM844.29 58.31L887.59 83.31L887.59 133.31L844.29 158.31L800.99 133.31L800.99 83.31zM844.29 208.31L887.59 233.31L887.59 283.31L844.29 308.31L800.99 283.31L800.99 233.31zM930.89 58.31L974.2 83.31L974.2 133.31L930.89 158.31L887.59 133.31L887.59 83.31zM887.59 133.31L930.89 158.31L930.89 208.31L887.59 233.31L844.29 208.31L844.29 158.31zM930.89 358.31L974.2 383.31L974.2 433.31L930.89 458.31L887.59 433.31L887.59 383.31zM1017.5 208.31L1060.8 233.31L1060.8 283.31L1017.5 308.31L974.2 283.31L974.2 233.31zM1060.8 433.31L1104.1 458.31L1104.1 508.31L1060.8 533.31L1017.5 508.31L1017.5 458.31zM1190.71 208.31L1234.01 233.31L1234.01 283.31L1190.71 308.31L1147.4 283.31L1147.4 233.31zM1147.4 283.31L1190.71 308.31L1190.71 358.31L1147.4 383.31L1104.1 358.31L1104.1 308.31zM1407.22 -16.69L1450.52 8.31L1450.52 58.31L1407.22 83.31L1363.92 58.31L1363.92 8.31zM1450.52 208.31L1493.83 233.31L1493.83 283.31L1450.52 308.31L1407.22 283.31L1407.22 233.31z" stroke="rgba(6, 156, 97, 0.93)" stroke-width="2"></path></g><defs><mask id="SvgjsMask1039"><rect width="1440" height="560" fill="#ffffff"></rect></mask></defs></svg>